General
Complete name                            : Dances With Wolves [1990] Extended 720p BRRip H264 AC3 - CODY.mp4
Format                                   : MPEG-4
Format profile                           : Base Media
Codec ID                                 : isom
File size                                : 3.45 GiB
Duration                                 : 3h 53mn
Overall bit rate mode                    : Variable
Overall bit rate                         : 2 112 Kbps
Encoded date                             : UTC 2012-09-01 00:49:47

Video
ID                                       : 1
Format                                   : AVC
Format/Info                              : Advanced Video Codec
Format profile                           : High@L4.1
Format settings, CABAC                   : Yes
Format settings, ReFrames                : 5 frames
Codec ID                                 : avc1
Codec ID/Info                            : Advanced Video Coding
Duration                                 : 3h 53mn
Bit rate mode                            : Variable
Bit rate                                 : 1 662 Kbps
Maximum bit rate                         : 20.0 Mbps
Width                                    : 1 280 pixels
Height                                   : 544 pixels
Display aspect ratio                     : 2.35:1
Frame rate mode                          : Constant
Frame rate                               : 23.976 fps
Color space                              : YUV
Chroma subsampling                       : 4:2:0
Bit depth                                : 8 bits
Scan type                                : Progressive
Bits/(Pixel*Frame)                       : 0.100
Stream size                              : 2.71 GiB (79%)
Writing library                          : x264 core 125 r2200 999b753
Encoding settings                        : rc=2pass
Color primaries                          : Generic film

Audio
ID                                       : 2
Format                                   : AC-3
Format/Info                              : Audio Coding 3
Mode extension                           : CM (complete main)
Codec ID                                 : ac-3
Duration                                 : 3h 53mn
Bit rate mode                            : Constant
Bit rate                                 : 448 Kbps
Channel(s)                               : 6 channels
Channel positions                        : Front: L C R, Side: L R, LFE
Sampling rate                            : 48.0 KHz
Bit depth                                : 16 bits
Compression mode                         : Lossy
Stream size                              : 749 MiB (21%)


IMDB link:                                 http://www.imdb.com/title/tt0099348/


Audio language                           : English, Sioux, Pawnee
  

Subtitles included                       : Bulgarian, Croatian, Czech, English 
                                           [full and only for non-English parts], 
                                           French, Greek, Hungarian, Polish, 
                                           Portuguese, Romanian, Serbian, 
                                           Spanish, Swedish, Vietnamese 
                                     
	
Please seed at least 1,5:1. This way this torrent has a chance to survive!


Thanks. Enjoy !!!	